<svg width="208" height="80" viewBox="0 0 208 80" fill="none" xmlns="http://www.w3.org/2000/svg">
<rect x="16" y="20" width="40" height="40" rx="6" fill="url(#paint0_linear_1_5023)"/>
<path d="M79.088 53.36C77.072 53.36 75.128 52.964 73.256 52.172C71.384 51.38 69.728 50.264 68.288 48.824L70.592 46.16C71.96 47.504 73.352 48.5 74.768 49.148C76.208 49.796 77.708 50.12 79.268 50.12C80.492 50.12 81.56 49.952 82.472 49.616C83.408 49.256 84.128 48.752 84.632 48.104C85.136 47.456 85.388 46.724 85.388 45.908C85.388 44.78 84.992 43.916 84.2 43.316C83.408 42.716 82.1 42.26 80.276 41.948L76.064 41.264C73.76 40.856 72.032 40.112 70.88 39.032C69.752 37.952 69.188 36.512 69.188 34.712C69.188 33.272 69.572 32.012 70.34 30.932C71.108 29.828 72.188 28.976 73.58 28.376C74.996 27.776 76.628 27.476 78.476 27.476C80.3 27.476 82.088 27.776 83.84 28.376C85.616 28.952 87.212 29.792 88.628 30.896L86.54 33.776C83.828 31.712 81.08 30.68 78.296 30.68C77.192 30.68 76.232 30.836 75.416 31.148C74.6 31.46 73.964 31.904 73.508 32.48C73.052 33.032 72.824 33.68 72.824 34.424C72.824 35.456 73.172 36.248 73.868 36.8C74.564 37.328 75.716 37.712 77.324 37.952L81.392 38.636C84.056 39.068 86.012 39.848 87.26 40.976C88.508 42.104 89.132 43.652 89.132 45.62C89.132 47.156 88.712 48.512 87.872 49.688C87.032 50.84 85.856 51.74 84.344 52.388C82.832 53.036 81.08 53.36 79.088 53.36ZM92.2021 53V27.8L95.8021 27.008V36.548C97.2181 35.06 99.0541 34.316 101.31 34.316C102.726 34.316 103.962 34.616 105.018 35.216C106.098 35.816 106.938 36.656 107.538 37.736C108.162 38.816 108.474 40.064 108.474 41.48V53H104.874V42.092C104.874 40.652 104.466 39.524 103.65 38.708C102.834 37.868 101.718 37.448 100.302 37.448C99.3421 37.448 98.4781 37.652 97.7101 38.06C96.9421 38.468 96.3061 39.056 95.8021 39.824V53H92.2021ZM121.34 53.36C119.564 53.36 117.944 52.94 116.48 52.1C115.04 51.26 113.9 50.12 113.06 48.68C112.22 47.24 111.8 45.632 111.8 43.856C111.8 42.08 112.22 40.472 113.06 39.032C113.9 37.592 115.04 36.452 116.48 35.612C117.944 34.748 119.564 34.316 121.34 34.316C123.14 34.316 124.76 34.748 126.2 35.612C127.64 36.452 128.78 37.592 129.62 39.032C130.46 40.472 130.88 42.08 130.88 43.856C130.88 45.632 130.46 47.24 129.62 48.68C128.78 50.12 127.64 51.26 126.2 52.1C124.76 52.94 123.14 53.36 121.34 53.36ZM121.34 50.192C122.468 50.192 123.488 49.916 124.4 49.364C125.312 48.788 126.032 48.02 126.56 47.06C127.088 46.1 127.352 45.02 127.352 43.82C127.352 42.644 127.076 41.588 126.524 40.652C125.996 39.692 125.276 38.924 124.364 38.348C123.476 37.772 122.468 37.484 121.34 37.484C120.212 37.484 119.192 37.772 118.28 38.348C117.392 38.924 116.672 39.692 116.12 40.652C115.592 41.588 115.328 42.644 115.328 43.82C115.328 45.02 115.592 46.1 116.12 47.06C116.648 48.02 117.368 48.788 118.28 49.364C119.192 49.916 120.212 50.192 121.34 50.192ZM134.284 60.344V34.676H137.848V36.44C139.384 35.072 141.256 34.388 143.464 34.388C145.192 34.388 146.752 34.808 148.144 35.648C149.56 36.488 150.676 37.616 151.492 39.032C152.308 40.448 152.716 42.044 152.716 43.82C152.716 45.596 152.296 47.204 151.456 48.644C150.64 50.06 149.524 51.188 148.108 52.028C146.716 52.868 145.144 53.288 143.392 53.288C142.384 53.288 141.412 53.132 140.476 52.82C139.54 52.484 138.676 52.016 137.884 51.416V60.344H134.284ZM142.996 50.156C144.172 50.156 145.216 49.88 146.128 49.328C147.064 48.776 147.808 48.032 148.36 47.096C148.912 46.136 149.188 45.056 149.188 43.856C149.188 42.656 148.912 41.576 148.36 40.616C147.808 39.656 147.064 38.9 146.128 38.348C145.216 37.796 144.172 37.52 142.996 37.52C141.964 37.52 141.004 37.712 140.116 38.096C139.228 38.48 138.484 39.02 137.884 39.716V47.996C138.484 48.668 139.228 49.196 140.116 49.58C141.028 49.964 141.988 50.156 142.996 50.156ZM156.151 53V27.8L159.751 27.116V42.704L168.643 34.676H172.855L163.387 43.244L173.359 53H168.607L159.751 44.396V53H156.151ZM180.299 53.324C178.979 53.324 177.815 53.096 176.807 52.64C175.799 52.16 175.007 51.5 174.431 50.66C173.855 49.82 173.567 48.848 173.567 47.744C173.567 46.016 174.227 44.66 175.547 43.676C176.867 42.668 178.679 42.164 180.983 42.164C182.783 42.164 184.451 42.512 185.987 43.208V41.264C185.987 39.944 185.603 38.96 184.835 38.312C184.091 37.664 182.987 37.34 181.523 37.34C180.683 37.34 179.807 37.472 178.895 37.736C177.983 37.976 176.963 38.36 175.835 38.888L174.503 36.188C175.895 35.54 177.191 35.072 178.391 34.784C179.591 34.472 180.803 34.316 182.027 34.316C184.403 34.316 186.239 34.88 187.535 36.008C188.855 37.136 189.515 38.744 189.515 40.832V53H185.987V51.416C185.171 52.064 184.295 52.544 183.359 52.856C182.423 53.168 181.403 53.324 180.299 53.324ZM177.023 47.672C177.023 48.56 177.395 49.28 178.139 49.832C178.907 50.384 179.903 50.66 181.127 50.66C182.087 50.66 182.963 50.516 183.755 50.228C184.571 49.94 185.315 49.496 185.987 48.896V45.8C185.291 45.392 184.559 45.104 183.791 44.936C183.047 44.744 182.207 44.648 181.271 44.648C179.951 44.648 178.907 44.924 178.139 45.476C177.395 46.004 177.023 46.736 177.023 47.672Z" fill="#0C2146"/>
<path d="M35.9223 51.32C34.1089 51.32 32.3383 50.9893 30.6102 50.328C28.8822 49.6453 27.3462 48.6853 26.0023 47.448L28.6583 44.12C29.9596 45.272 31.2076 46.104 32.4023 46.616C33.6183 47.128 34.8983 47.384 36.2423 47.384C37.1809 47.384 37.9916 47.2773 38.6743 47.064C39.3569 46.8293 39.8796 46.4987 40.2423 46.072C40.6263 45.6453 40.8183 45.144 40.8183 44.568C40.8183 43.8 40.5409 43.2133 39.9863 42.808C39.4316 42.3813 38.4823 42.0507 37.1383 41.816L32.6903 41.048C30.7916 40.728 29.3409 40.056 28.3383 39.032C27.3569 38.008 26.8663 36.6853 26.8663 35.064C26.8663 33.6773 27.2183 32.472 27.9223 31.448C28.6476 30.424 29.6609 29.6453 30.9623 29.112C32.2849 28.5573 33.8529 28.28 35.6663 28.28C37.3089 28.28 38.9409 28.5573 40.5623 29.112C42.2049 29.6667 43.6556 30.4347 44.9143 31.416L42.4183 34.872C40.0716 33.08 37.7143 32.184 35.3463 32.184C34.5143 32.184 33.7889 32.2907 33.1703 32.504C32.5516 32.7173 32.0716 33.016 31.7303 33.4C31.4103 33.7627 31.2503 34.2 31.2503 34.712C31.2503 35.3947 31.4956 35.928 31.9863 36.312C32.4769 36.6747 33.2983 36.952 34.4503 37.144L38.6743 37.848C40.9143 38.2107 42.5889 38.9253 43.6983 39.992C44.8076 41.0373 45.3623 42.424 45.3623 44.152C45.3623 45.6027 44.9783 46.872 44.2103 47.96C43.4423 49.0267 42.3436 49.8587 40.9143 50.456C39.5063 51.032 37.8423 51.32 35.9223 51.32Z" fill="white"/>
<defs>
<linearGradient id="paint0_linear_1_5023" x1="16" y1="40" x2="56" y2="40" gradientUnits="userSpaceOnUse">
<stop stop-color="#2979FF"/>
<stop offset="1" stop-color="#4C589E"/>
</linearGradient>
</defs>
</svg>
